<?xml version="1.0" encoding="UTF-8" standalone="no"?>
<svg
   fill="none"
   viewBox="0 0 24 24"
   stroke-width="1.5"
   stroke="currentColor"
   class="size-6"
   version="1.1"
   id="svg1"
   sodipodi:docname="arrow-path.svg"
   inkscape:version="1.3 (0e150ed, 2023-07-21)"
   xmlns:inkscape="http://www.inkscape.org/namespaces/inkscape"
   xmlns:sodipodi="http://sodipodi.sourceforge.net/DTD/sodipodi-0.dtd"
   xmlns="http://www.w3.org/2000/svg"
   xmlns:svg="http://www.w3.org/2000/svg">
  <defs
     id="defs1" />
  <sodipodi:namedview
     id="namedview1"
     pagecolor="#ffffff"
     bordercolor="#000000"
     borderopacity="0.25"
     inkscape:showpageshadow="2"
     inkscape:pageopacity="0.0"
     inkscape:pagecheckerboard="0"
     inkscape:deskcolor="#d1d1d1"
     inkscape:zoom="9.8333333"
     inkscape:cx="11.949153"
     inkscape:cy="12"
     inkscape:window-width="1312"
     inkscape:window-height="431"
     inkscape:window-x="0"
     inkscape:window-y="43"
     inkscape:window-maximized="0"
     inkscape:current-layer="svg1" />
  <path
     style="color:#000000;fill:#000000;stroke-linecap:round;stroke-linejoin:round;-inkscape-stroke:none"
     d="M 11.927734,3.0136719 C 8.1198383,3.0686884 4.4207899,5.5103418 3.3066406,9.671875 A 0.75,0.75 0 0 0 3.8378906,10.589844 0.75,0.75 0 0 0 4.7558594,10.058594 C 6.258509,4.4459471 13.194247,2.5867743 17.302734,6.6953125 L 19.205078,8.5976563 H 16.023437 A 0.75,0.75 0 0 0 15.273438,9.3476563 0.75,0.75 0 0 0 16.023437,10.097656 H 21.015625 A 0.75,0.75 0 0 0 21.544922,9.8769531 0.75,0.75 0 0 0 21.740234,9.40625 0.75,0.75 0 0 0 21.763672,9.3496094 0.75,0.75 0 0 0 21.765625,9.3476563 0.75,0.75 0 0 0 21.765625,9.3457031 V 4.3554687 A 0.75,0.75 0 0 0 21.015625,3.6054688 0.75,0.75 0 0 0 20.265625,4.3554687 V 7.5371094 L 18.365234,5.6347656 C 16.537475,3.8069843 14.212472,2.980662 11.927734,3.0136719 Z M 20.162109,13.410156 A 0.75,0.75 0 0 0 19.244141,13.941406 C 17.741491,19.554053 10.8038,21.413226 6.6953125,17.304687 L 4.7949219,15.402344 H 7.9765625 A 0.75,0.75 0 0 0 8.7265625,14.652344 0.75,0.75 0 0 0 7.9765625,13.902344 H 2.984375 A 0.75,0.75 0 0 0 2.4550781,14.121094 0.75,0.75 0 0 0 2.453125,14.121094 0.75,0.75 0 0 0 2.453125,14.125 0.75,0.75 0 0 0 2.234375,14.652344 V 19.644531 A 0.75,0.75 0 0 0 2.984375,20.394531 0.75,0.75 0 0 0 3.734375,19.644531 V 16.462891 L 5.6347656,18.365234 C 10.508789,23.239318 18.910721,20.986578 20.693359,14.328125 A 0.75,0.75 0 0 0 20.162109,13.410156 Z"
     id="path1" />
</svg>
