<?xml version="1.0" encoding="UTF-8" standalone="no"?>
<svg
   width="24"
   height="24"
   viewBox="0 0 24 24"
   fill="none"
   version="1.1"
   id="svg1"
   sodipodi:docname="arrow-right.svg"
   inkscape:version="1.3 (0e150ed, 2023-07-21)"
   xmlns:inkscape="http://www.inkscape.org/namespaces/inkscape"
   xmlns:sodipodi="http://sodipodi.sourceforge.net/DTD/sodipodi-0.dtd"
   xmlns="http://www.w3.org/2000/svg"
   xmlns:svg="http://www.w3.org/2000/svg">
  <defs
     id="defs1" />
  <sodipodi:namedview
     id="namedview1"
     pagecolor="#ffffff"
     bordercolor="#000000"
     borderopacity="0.25"
     inkscape:showpageshadow="2"
     inkscape:pageopacity="0.0"
     inkscape:pagecheckerboard="0"
     inkscape:deskcolor="#d1d1d1"
     inkscape:zoom="34.291667"
     inkscape:cx="12"
     inkscape:cy="12"
     inkscape:window-width="1392"
     inkscape:window-height="1212"
     inkscape:window-x="0"
     inkscape:window-y="25"
     inkscape:window-maximized="0"
     inkscape:current-layer="svg1" />
  <g
     id="arrow-right">
    <path
       style="color:#000000;fill:#667085;stroke-linecap:round;stroke-linejoin:round;-inkscape-stroke:none"
       d="M 12,4 A 1,1 0 0 0 11.292969,4.2929687 1,1 0 0 0 11.292969,5.7070312 L 16.585937,11 H 5 A 1,1 0 0 0 4,12 1,1 0 0 0 5,13 H 16.585937 L 11.292969,18.292969 A 1,1 0 0 0 11.292969,19.707031 1,1 0 0 0 12.707031,19.707031 L 19.707031,12.707031 A 1,1 0 0 0 19.966797,12.259766 1,1 0 0 0 19.966797,12.080078 1,1 0 0 0 20,12 1,1 0 0 0 19.966797,11.833984 1,1 0 0 0 19.939453,11.691406 1,1 0 0 0 19.707031,11.292969 L 12.707031,4.2929687 A 1,1 0 0 0 12,4 Z"
       id="Icon" />
  </g>
</svg>
