<?xml version="1.0" encoding="UTF-8" standalone="no"?>
<svg
   fill="none"
   viewBox="0 0 24 24"
   stroke-width="1.5"
   stroke="currentColor"
   class="size-6"
   version="1.1"
   id="svg1"
   sodipodi:docname="beaker.svg"
   inkscape:version="1.3 (0e150ed, 2023-07-21)"
   xmlns:inkscape="http://www.inkscape.org/namespaces/inkscape"
   xmlns:sodipodi="http://sodipodi.sourceforge.net/DTD/sodipodi-0.dtd"
   xmlns="http://www.w3.org/2000/svg"
   xmlns:svg="http://www.w3.org/2000/svg">
  <defs
     id="defs1" />
  <sodipodi:namedview
     id="namedview1"
     pagecolor="#ffffff"
     bordercolor="#000000"
     borderopacity="0.25"
     inkscape:showpageshadow="2"
     inkscape:pageopacity="0.0"
     inkscape:pagecheckerboard="0"
     inkscape:deskcolor="#d1d1d1"
     inkscape:zoom="9.8333333"
     inkscape:cx="11.949153"
     inkscape:cy="12"
     inkscape:window-width="1312"
     inkscape:window-height="431"
     inkscape:window-x="0"
     inkscape:window-y="43"
     inkscape:window-maximized="0"
     inkscape:current-layer="svg1" />
  <path
     style="color:#000000;fill:#000000;stroke-linecap:round;stroke-linejoin:round;-inkscape-stroke:none"
     d="M 9.75,2.3535156 A 0.75,0.75 0 0 0 9.7402344,2.3574219 C 9.7207493,2.3591862 9.7011226,2.3556118 9.6816406,2.3574219 9.6809912,2.3574822 9.6803369,2.3573615 9.6796875,2.3574219 9.421282,2.3811214 9.1627015,2.4081976 8.9042969,2.4414063 A 0.75,0.75 0 0 0 8.2558594,3.28125 0.75,0.75 0 0 0 9,3.8554688 V 8.8183594 C 9.0000034,9.2164732 8.8420541,9.5973956 8.5605469,9.8789063 L 4.46875,13.96875 A 0.75,0.75 0 0 0 4.46875,13.970703 0.75,0.75 0 0 0 4.4667969,13.972656 L 2.2675781,16.171875 C 1.4594237,16.978719 1.225201,18.105652 1.5039062,19.068359 1.7826115,20.031067 2.6023457,20.859004 3.7382813,21.052734 6.4238706,21.511844 9.1846299,21.75 12,21.75 14.768515,21.750964 17.532575,21.517975 20.261719,21.052734 21.397294,20.858952 22.215497,20.031022 22.494141,19.068359 22.772784,18.105697 22.539833,16.979287 21.732422,16.171875 L 20.330078,14.769531 15.439453,9.8789063 C 15.158942,9.5990596 15,9.2168665 15,8.8183594 V 3.8554688 A 0.75,0.75 0 0 0 15.744141,3.28125 0.75,0.75 0 0 0 15.095703,2.4414063 C 14.837942,2.4082803 14.580028,2.3810833 14.322266,2.3574219 A 0.75,0.75 0 0 0 14.320313,2.3574219 C 14.319669,2.3573629 14.319003,2.3574808 14.318359,2.3574219 14.302124,2.3559135 14.285768,2.3588985 14.269531,2.3574219 A 0.75,0.75 0 0 0 14.25,2.3535156 0.75,0.75 0 0 0 14.240234,2.3574219 C 12.753441,2.2239683 11.256363,2.2245501 9.7695313,2.3574219 A 0.75,0.75 0 0 0 9.75,2.3535156 Z M 10.5,3.8515625 C 11.499946,3.7876829 12.500054,3.7876829 13.5,3.8515625 V 8.8183594 C 13.5,9.613851 13.815418,10.377301 14.378906,10.939453 L 18.333984,14.894531 18.048828,14.964844 C 16.1294,15.438668 14.10415,15.214559 12.335938,14.330078 10.701204,13.512365 8.8834125,13.320837 7.0820312,13.480469 L 9.6210938,10.939453 C 10.183497,10.377043 10.500007,9.6137225 10.5,8.8183594 Z M 8.8632813,14.84375 C 9.8308187,14.951375 10.779661,15.227534 11.664063,15.669922 13.751621,16.714144 16.144156,16.981825 18.410156,16.421875 A 0.750075,0.750075 0 0 0 18.412109,16.419922 L 19.570312,16.130859 20.671875,17.232422 C 21.096462,17.657009 21.188294,18.188804 21.054687,18.650391 20.921081,19.111977 20.591189,19.475001 20.009766,19.574219 17.364066,20.025235 14.683867,20.250934 12,20.25 9.2693756,20.25 6.5945928,20.019108 3.9921875,19.574219 A 0.750075,0.750075 0 0 0 3.9902344,19.574219 C 3.4081717,19.47495 3.0788568,19.111681 2.9453125,18.650391 2.8117682,18.1891 2.9032807,17.65853 3.328125,17.234375 A 0.750075,0.750075 0 0 0 3.328125,17.232422 L 5.3847656,15.175781 5.9492187,15.035156 C 6.9092177,14.797932 7.8957438,14.736125 8.8632813,14.84375 Z"
     id="path1" />
</svg>
