<?xml version="1.0" encoding="UTF-8" standalone="no"?>
<svg
   fill="none"
   viewBox="0 0 24 24"
   stroke-width="1.5"
   stroke="currentColor"
   class="size-6"
   version="1.1"
   id="svg1"
   sodipodi:docname="school.svg"
   inkscape:version="1.3 (0e150ed, 2023-07-21)"
   xmlns:inkscape="http://www.inkscape.org/namespaces/inkscape"
   xmlns:sodipodi="http://sodipodi.sourceforge.net/DTD/sodipodi-0.dtd"
   xmlns="http://www.w3.org/2000/svg"
   xmlns:svg="http://www.w3.org/2000/svg">
  <defs
     id="defs1" />
  <sodipodi:namedview
     id="namedview1"
     pagecolor="#ffffff"
     bordercolor="#000000"
     borderopacity="0.25"
     inkscape:showpageshadow="2"
     inkscape:pageopacity="0.0"
     inkscape:pagecheckerboard="0"
     inkscape:deskcolor="#d1d1d1"
     inkscape:zoom="9.8333333"
     inkscape:cx="11.949153"
     inkscape:cy="12"
     inkscape:window-width="1312"
     inkscape:window-height="431"
     inkscape:window-x="0"
     inkscape:window-y="43"
     inkscape:window-maximized="0"
     inkscape:current-layer="svg1" />
  <path
     style="color:#000000;fill:none;stroke-linecap:round;stroke-linejoin:round;-inkscape-stroke:none"
     d="M 11.699219,2.8066406 C 8.0014943,4.422847 4.4741736,6.4039792 1.1699219,8.7207031 A 0.750075,0.750075 0 0 0 1.4023437,10.056641 C 2.0964498,10.248279 2.7816799,10.46601 3.4667969,10.6875 3.2360208,12.610258 3.067009,14.540347 3.0195313,16.476562 A 0.750075,0.750075 0 0 0 3.4804688,17.185547 C 4.1254236,17.454952 4.6921885,17.876693 5.3242187,18.173828 5.0817868,18.63067 4.8359042,19.090795 4.4628906,19.462891 A 0.75,0.75 0 0 0 4.4628906,20.523437 0.75,0.75 0 0 0 5.5234375,20.523437 C 6.0015346,20.046517 6.317424,19.458591 6.6289062,18.873047 8.3012327,19.723439 10.021275,20.485458 11.583984,21.527344 A 0.750075,0.750075 0 0 0 12.416016,21.527344 C 14.972105,19.823307 17.686752,18.36945 20.521484,17.185547 A 0.750075,0.750075 0 0 0 20.982422,16.476562 C 20.934907,14.540352 20.76395,12.610257 20.533203,10.6875 21.217274,10.466233 21.903227,10.249389 22.599609,10.056641 A 0.750075,0.750075 0 0 0 22.830078,8.71875 C 19.525793,6.4023582 15.998476,4.4225081 12.300781,2.8066406 A 0.750075,0.750075 0 0 0 11.699219,2.8066406 Z M 12,4.3300781 C 15.006437,5.6642981 17.873048,7.2819837 20.615234,9.0957031 20.244998,9.2110384 19.868227,9.3124787 19.501953,9.4355469 A 0.75,0.75 0 0 0 19.5,9.4355469 C 16.914069,10.305046 14.415313,11.408062 12,12.675781 10.891102,12.093841 9.70419,11.686697 8.5566406,11.1875 9.7958468,10.466977 11.031813,9.7401604 12.324219,9.1191406 A 0.75,0.75 0 0 0 12.675781,8.1191406 0.75,0.75 0 0 0 11.675781,7.7675781 C 10.008105,8.5689207 8.3927524,9.4736192 6.8125,10.435547 6.0292402,10.128695 5.2959838,9.7038189 4.4980469,9.4355469 4.1301573,9.3118812 3.7553286,9.2109917 3.3847656,9.0957031 6.1268785,7.2817655 8.9936064,5.664542 12,4.3300781 Z M 4.9257812,11.248047 C 5.2935467,11.379844 5.6355367,11.572548 6,11.712891 V 13.074219 C 5.88265,13.146109 5.7141816,13.138196 5.6269531,13.236328 5.3644989,13.531589 5.25,13.895834 5.25,14.25 5.25,14.604166 5.3644989,14.968411 5.6269531,15.263672 5.7141816,15.361804 5.88265,15.353891 6,15.425781 V 15.75 A 0.750075,0.750075 0 0 0 6,15.751953 C 6.0004911,16.093948 5.8693275,16.407573 5.8046875,16.738281 5.3754396,16.538352 4.9897312,16.255948 4.5546875,16.068359 4.6062406,14.456509 4.7439328,12.850281 4.9257812,11.248047 Z M 19.076172,11.248047 C 19.258,12.85029 19.395686,14.456503 19.447266,16.068359 16.855947,17.185536 14.362937,18.513858 12,20.056641 10.464293,19.053874 8.7963921,18.290003 7.1601562,17.464844 7.3109611,16.900142 7.5008538,16.342607 7.5,15.748047 V 15.425781 C 7.61735,15.353891 7.7858184,15.361804 7.8730469,15.263672 8.1355011,14.968411 8.25,14.604166 8.25,14.25 8.25,13.895834 8.1355011,13.531589 7.8730469,13.236328 7.7858184,13.138196 7.61735,13.146109 7.5,13.074219 V 12.359375 C 8.8876872,12.946544 10.316394,13.439612 11.646484,14.150391 A 0.750075,0.750075 0 0 0 12.353516,14.150391 C 14.509964,12.997846 16.775201,12.072567 19.076172,11.248047 Z"
     id="path1" />
</svg>
