<?xml version="1.0" encoding="UTF-8" standalone="no"?>
<svg
   fill="none"
   viewBox="0 0 24 24"
   stroke-width="1.5"
   stroke="currentColor"
   class="size-6"
   version="1.1"
   id="svg1"
   sodipodi:docname="send-mail.svg"
   inkscape:version="1.3 (0e150ed, 2023-07-21)"
   xmlns:inkscape="http://www.inkscape.org/namespaces/inkscape"
   xmlns:sodipodi="http://sodipodi.sourceforge.net/DTD/sodipodi-0.dtd"
   xmlns="http://www.w3.org/2000/svg"
   xmlns:svg="http://www.w3.org/2000/svg">
  <defs
     id="defs1" />
  <sodipodi:namedview
     id="namedview1"
     pagecolor="#ffffff"
     bordercolor="#000000"
     borderopacity="0.25"
     inkscape:showpageshadow="2"
     inkscape:pageopacity="0.0"
     inkscape:pagecheckerboard="0"
     inkscape:deskcolor="#d1d1d1"
     inkscape:zoom="34.291667"
     inkscape:cx="12"
     inkscape:cy="12"
     inkscape:window-width="1392"
     inkscape:window-height="1212"
     inkscape:window-x="0"
     inkscape:window-y="25"
     inkscape:window-maximized="0"
     inkscape:current-layer="svg1" />
  <path
     style="color:#000000;fill:#000000;stroke-linecap:round;stroke-linejoin:round;-inkscape-stroke:none"
     d="M 3.4785156,2.4042969 A 0.750075,0.750075 0 0 0 2.5527344,3.3457031 L 5.2148437,11.996094 2.5527344,20.654297 A 0.750075,0.750075 0 0 0 3.4785156,21.595703 C 10.093004,19.671776 16.332235,16.632687 21.923828,12.609375 A 0.750075,0.750075 0 0 0 21.923828,11.390625 C 16.331918,7.3672278 10.093349,4.3281355 3.4785156,2.4042969 Z M 4.4394531,4.3789062 C 9.9850995,6.1442381 15.234688,8.6964375 20.027344,12 15.23434,15.303926 9.9855991,17.857633 4.4394531,19.623047 L 6.5527344,12.75 H 13.5 A 0.75,0.75 0 0 0 14.25,12 0.75,0.75 0 0 0 13.5,11.25 H 6.5546875 Z"
     id="path1" />
</svg>
